# xmcd
#
# Track frame offsets: 
#        150
#        22916
#        41846
#        60216
#        82771
#        105269
#        122295
#        145253
#        166230
#
# Disc length: 2454 seconds
#
# Revision: 0
# Processed by: cddbd v1.5.2PL0 Copyright (c) Steve Scherf et al.
# Submitted via: ExactAudioCopy v1.0b3
#
DISCID=5a099409
DTITLE=Ilir Shaqiri - Garda e Kosovës
DYEAR=2000
DGENRE=Folk - Shqip
TTITLE0=Garda e Kosovës
TTITLE1=Baladë për Muje Krasniqin
TTITLE2=Këngë për Lladrocin
TTITLE3=Këngë për Bedri Shalen
TTITLE4=Po Kullet Mali
TTITLE5=Këngë për Ilaz Kodrën
TTITLE6=Këngë për Zahir Pajazitin
TTITLE7=Kthim Prapa Ska
TTITLE8=Zgjimi
EXTD=
EXTT0=
EXTT1=
EXTT2=
EXTT3=
EXTT4=
EXTT5=
EXTT6=
EXTT7=
EXTT8=
PLAYORDER=
